<svg width="44" height="44" fill="none" xmlns="http://www.w3.org/2000/svg"><g clip-path="url(#clip0_419_115)"><path d="M43.637 21.98l-7.395-7.64a1.289 1.289 0 00-.926-.393h-4.725V8.386a1.29 1.29 0 00-1.29-1.29H5.36a1.29 1.29 0 00-1.29 1.29v3.868h-.975a1.29 1.29 0 000 2.578h.976v2.58H1.29a1.29 1.29 0 000 2.578h2.78v11.838c0 .712.577 1.29 1.289 1.29h2.744c.25.831.703 1.593 1.334 2.225a5.29 5.29 0 003.765 1.56 5.29 5.29 0 003.765-1.56 5.29 5.29 0 001.326-2.212h12.31c.246.81.688 1.573 1.327 2.212a5.29 5.29 0 003.765 1.56 5.29 5.29 0 003.765-1.56 5.292 5.292 0 001.326-2.212h1.925A1.29 1.29 0 0044 31.843v-8.965c0-.335-.13-.656-.363-.896zm-3.968-.392h-9.114v-5.063h4.215l4.9 5.063zM6.648 19.99h6.71a1.29 1.29 0 100-2.578h-6.71v-2.58h7.655a1.29 1.29 0 000-2.578H6.648v-2.58h21.365l-.037 20.88h-9.55a5.294 5.294 0 00-1.459-2.741 5.29 5.29 0 00-3.765-1.56 5.29 5.29 0 00-3.765 1.56 5.286 5.286 0 00-1.458 2.726H6.648v-10.55zm8.496 13.53a2.728 2.728 0 01-1.942.804 2.728 2.728 0 01-1.942-.804 2.729 2.729 0 01-.804-1.942c0-.734.286-1.424.804-1.942a2.728 2.728 0 011.942-.805c.734 0 1.424.286 1.942.805a2.75 2.75 0 010 3.884zm22.492 0a2.728 2.728 0 01-1.942.804 2.728 2.728 0 01-1.941-.804 2.75 2.75 0 010-3.884 2.728 2.728 0 011.941-.805c.734 0 1.424.286 1.942.805.52.519.805 1.208.805 1.942a2.73 2.73 0 01-.805 1.942zm3.282-2.967a5.294 5.294 0 00-1.459-2.74 5.29 5.29 0 00-3.765-1.56 5.29 5.29 0 00-3.764 1.56 5.29 5.29 0 00-1.376 2.386v-6.033h10.868v6.387h-.504z" fill="#47BF6F"/></g><defs><clipPath id="clip0_419_115"><path fill="#fff" d="M0 0h44v44H0z"/></clipPath></defs></svg>