<svg width="53" height="52" fill="none" xmlns="http://www.w3.org/2000/svg"><g clip-path="url(#clip0_419_571)" filter="url(#filter0_d_419_571)"><path d="M47.21 3.176h-5.645c.02-.626.032-1.255.032-1.887A1.29 1.29 0 0040.306 0H12.693a1.29 1.29 0 00-1.29 1.29c0 .631.012 1.26.032 1.886H5.79c-.712 0-1.289.577-1.289 1.289 0 5.776 1.51 11.225 4.25 15.344 2.71 4.073 6.319 6.408 10.218 6.636.884.961 1.818 1.745 2.791 2.344v5.729h-2.163a4.746 4.746 0 00-4.74 4.741v2.163h-.092a1.29 1.29 0 000 2.578h23.472a1.289 1.289 0 100-2.578h-.091v-2.163a4.746 4.746 0 00-4.742-4.741h-2.162v-5.73c.973-.597 1.908-1.382 2.792-2.343 3.898-.228 7.507-2.563 10.217-6.636 2.74-4.119 4.25-9.568 4.25-15.344a1.29 1.29 0 00-1.29-1.29zM10.898 18.38c-2.26-3.397-3.59-7.841-3.792-12.627h4.474c.465 5.883 1.846 11.321 4.005 15.638a26.6 26.6 0 001.076 1.949c-2.144-.81-4.128-2.503-5.763-4.96zm24.67 20.878v2.163H17.433v-2.163c0-1.192.97-2.163 2.162-2.163h13.808c1.192 0 2.162.97 2.162 2.163zm-6.904-4.741h-4.326v-4.61c.709.188 1.43.285 2.163.285.732 0 1.454-.097 2.163-.284v4.609zm.798-7.676a1.266 1.266 0 00-.167.085c-.911.453-1.847.688-2.794.688-.946 0-1.882-.235-2.793-.688a1.28 1.28 0 00-.169-.086c-1.01-.534-1.989-1.341-2.913-2.402a1.3 1.3 0 00-.165-.192c-.918-1.09-1.781-2.43-2.57-4.008-2.37-4.738-3.738-10.967-3.893-17.66h25.006c-.156 6.693-1.524 12.923-3.893 17.66-.789 1.578-1.652 2.918-2.57 4.008a1.265 1.265 0 00-.165.193c-.925 1.06-1.903 1.867-2.914 2.402zm12.642-8.46c-1.635 2.456-3.62 4.15-5.763 4.959a26.6 26.6 0 001.076-1.949c2.159-4.317 3.54-9.755 4.005-15.638h4.474c-.203 4.786-1.531 9.23-3.792 12.627z" fill="#47BF6F"/></g><defs><clipPath id="clip0_419_571"><path fill="#fff" transform="translate(4.5)" d="M0 0h44v44H0z"/></clipPath><filter id="filter0_d_419_571" x=".5" y="0" width="52" height="52" filterUnits="userSpaceOnUse" color-interpolation-filters="sRGB"><feFlood flood-opacity="0" result="BackgroundImageFix"/><feColorMatrix in="SourceAlpha" values="0 0 0 0 0 0 0 0 0 0 0 0 0 0 0 0 0 0 127 0" result="hardAlpha"/><feOffset dy="4"/><feGaussianBlur stdDeviation="2"/><feComposite in2="hardAlpha" operator="out"/><feColorMatrix values="0 0 0 0 0 0 0 0 0 0 0 0 0 0 0 0 0 0 0.25 0"/><feBlend in2="BackgroundImageFix" result="effect1_dropShadow_419_571"/><feBlend in="SourceGraphic" in2="effect1_dropShadow_419_571" result="shape"/></filter></defs></svg>