<svg width="44" height="44" fill="none" xmlns="http://www.w3.org/2000/svg"><path d="M24.93 27.339a5.213 5.213 0 005.208-5.208 5.213 5.213 0 00-5.208-5.208 5.213 5.213 0 00-5.208 5.208 5.213 5.213 0 005.208 5.208zm0-8.343a3.137 3.137 0 013.135 3.135 3.137 3.137 0 01-3.135 3.134 3.138 3.138 0 01-3.134-3.134 3.141 3.141 0 013.134-3.135zm3.397 9.916h-6.806c-3.799 0-6.89 3.086-6.89 6.873v6.379c0 1.03.804 1.835 1.835 1.835h16.898a1.814 1.814 0 001.836-1.835V35.79c.006-3.793-3.08-6.879-6.873-6.879zm4.8 13.02h-1.91v-6.117a.856.856 0 00-.853-.853.856.856 0 00-.854.853v6.117h-9.215v-6.117a.856.856 0 00-.853-.853.856.856 0 00-.854.853v6.117h-1.879v-6.14a4.816 4.816 0 014.812-4.806h6.806c2.647 0 4.8 2.152 4.8 4.799v6.147zm-1.684-31.516a5.213 5.213 0 005.208-5.208A5.213 5.213 0 0031.443 0a5.213 5.213 0 00-5.208 5.208 5.213 5.213 0 005.208 5.208zm0-8.343a3.138 3.138 0 013.135 3.135 3.141 3.141 0 01-3.135 3.135 3.137 3.137 0 01-3.134-3.135 3.137 3.137 0 013.134-3.135z" fill="#47BF6F"/><path d="M39.695 14.002a6.833 6.833 0 00-4.86-2.019h-6.916a6.866 6.866 0 00-5.52 2.806 1.04 1.04 0 00.22 1.451 1.037 1.037 0 001.445-.22 4.787 4.787 0 013.848-1.957h6.928c1.28 0 2.482.5 3.39 1.409a4.771 4.771 0 011.41 3.39v6.148h-1.91v-6.117a.856.856 0 00-.853-.854.856.856 0 00-.854.854v6.117h-5.348a1.036 1.036 0 100 2.073h9.196a1.814 1.814 0 001.836-1.835v-6.385h.006a6.808 6.808 0 00-2.018-4.861zM12.58 17.368a5.213 5.213 0 005.209-5.208 5.213 5.213 0 00-5.208-5.208 5.213 5.213 0 00-5.208 5.208 5.213 5.213 0 005.208 5.208zm0-8.348a3.137 3.137 0 013.135 3.134 3.137 3.137 0 01-3.134 3.135 3.137 3.137 0 01-3.135-3.135 3.141 3.141 0 013.135-3.134zm.66 22.942H7.97v-6.123a.856.856 0 00-.853-.854.856.856 0 00-.854.854v6.123H4.354v-6.148c0-2.646 2.159-4.8 4.818-4.8l6.848.007c.616 0 1.19.11 1.763.341a1.043 1.043 0 001.354-.573 1.036 1.036 0 00-.573-1.348 6.711 6.711 0 00-2.537-.493l-6.849-.007c-3.8 0-6.891 3.086-6.891 6.873v6.38c0 1.03.805 1.835 1.835 1.835h9.118a1.035 1.035 0 100-2.067z" fill="#47BF6F"/></svg>