<svg width="52" height="52" fill="none" xmlns="http://www.w3.org/2000/svg"><path d="M49.088 46.696a1.005 1.005 0 00-1.456 0c-.676.676-1.924.676-2.6 0-.988-.988-2.34-1.3-3.588-1.04 2.444-3.328 3.952-7.384 4.264-11.648.104-1.352-.728-2.652-2.08-3.12l-3.588-1.352v-9.152a3.13 3.13 0 00-3.12-3.12h-1.04v-5.2H39c.572 0 1.04-.468 1.04-1.04 0-.572-.468-1.04-1.04-1.04h-9.36v-3.64A3.618 3.618 0 0026 2.704a3.618 3.618 0 00-3.64 3.64v3.64H13c-.572 0-1.04.468-1.04 1.04 0 .572.468 1.04 1.04 1.04h3.12v5.2h-1.04a3.13 3.13 0 00-3.12 3.12v9.152l-3.588 1.3c-1.3.468-2.132 1.768-2.08 3.12.312 4.264 1.82 8.32 4.264 11.648a4.041 4.041 0 00-.832-.104c-1.04 0-2.028.416-2.756 1.144-.676.676-1.924.676-2.6 0a1.005 1.005 0 00-1.456 0 1.005 1.005 0 000 1.456 3.896 3.896 0 002.756 1.144c1.04 0 2.028-.416 2.756-1.144.676-.676 1.924-.676 2.6 0a3.87 3.87 0 003.38 1.092h.208a3.883 3.883 0 001.924-1.04c.676-.676 1.924-.676 2.6 0a3.896 3.896 0 002.756 1.144c1.04 0 2.028-.416 2.756-1.144a1.82 1.82 0 012.6 0c1.508 1.508 4.004 1.508 5.512 0a1.82 1.82 0 012.6 0c.52.52 1.248.884 1.976 1.04h.052c.26.052.52.052.728.052 1.04 0 2.028-.416 2.756-1.144a1.82 1.82 0 012.6 0 3.896 3.896 0 002.756 1.144c1.04 0 2.028-.416 2.756-1.144.52-.364.52-.988.104-1.404zM24.44 6.344c0-.884.676-1.56 1.56-1.56s1.56.676 1.56 1.56v3.64h-3.12v-3.64zm-6.24 5.72h15.6v5.2H18.2v-5.2zm-4.16 8.32c0-.572.468-1.04 1.04-1.04h21.84c.572 0 1.04.468 1.04 1.04v8.424l-11.596-4.212h-.676L14.04 28.808v-8.424zm17.316 26.312a1.82 1.82 0 01-2.6 0c-1.508-1.508-4.004-1.508-5.512 0-.676.676-1.924.676-2.6 0a3.896 3.896 0 00-2.756-1.144c-1.04 0-2.028.416-2.756 1.144-.156.156-.312.26-.52.364-3.588-3.328-5.876-8.112-6.24-13.208-.052-.416.26-.884.676-1.04L24.96 27.04v14.144c0 .572.468 1.04 1.04 1.04.572 0 1.04-.468 1.04-1.04V27.04l15.912 5.72c.416.156.728.572.676 1.04-.364 5.096-2.6 9.88-6.24 13.208-.156-.104-.364-.208-.52-.364a3.877 3.877 0 00-5.512.052z" fill="#47BF6F"/></svg>