<svg width="52" height="52" fill="none" xmlns="http://www.w3.org/2000/svg"><g clip-path="url(#clip0_419_351)" fill="#47BF6F"><path d="M42.413 18.066h-8.735l-9.867-7.82a.838.838 0 00-.52-.181h-5.188a.848.848 0 00-.757 1.201l3.262 6.8H8.462l-3.573-3.532a.74.74 0 00-.59-.242l-3.461.003a.839.839 0 00-.838.839v13.281c0 .344.21.653.53.78l3.8 1.51a.852.852 0 00.31.059h16.127l-3.457 10.06a.847.847 0 00.793 1.111h5.187a.84.84 0 00.623-.276l9.85-10.895h8.65c3.367 0 9.587-2.618 9.587-6.35 0-3.73-6.22-6.348-9.587-6.348zm-22.978-6.324h3.563l7.979 6.324h-8.508l-3.034-6.324zm3.483 28.516h-3.64l3.263-9.494h8.96l-8.583 9.494zm19.495-11.172H4.8l-3.123-1.24V15.972l2.278-.003 3.573 3.532a.837.837 0 00.59.242h34.296c2.834 0 7.91 2.355 7.91 4.672-.001 2.316-5.076 4.671-7.911 4.671z"/><path d="M42.413 23.517h-1.678a.838.838 0 110-1.677h1.678a.838.838 0 110 1.677zm-5.216 0h-3.54a.838.838 0 110-1.677h3.54a.838.838 0 110 1.677zm-7.079 0H26.58a.838.838 0 110-1.677h3.538a.838.838 0 110 1.677zm-7.078 0H19.5a.838.838 0 110-1.677h3.54a.839.839 0 110 1.677zm-7.078 0h-3.54a.839.839 0 110-1.677h3.54a.838.838 0 110 1.677zm-7.078 0H7.207a.838.838 0 110-1.677h1.677a.839.839 0 110 1.677zm5.89 11.097H7.012a.838.838 0 110-1.677h7.762a.838.838 0 110 1.677zm-1.548 3.857H5.463a.838.838 0 110-1.677h7.763a.839.839 0 110 1.677z"/></g><defs><clipPath id="clip0_419_351"><path fill="#fff" d="M0 0h52v52H0z"/></clipPath></defs></svg>