<svg width="52" height="52" fill="none" xmlns="http://www.w3.org/2000/svg"><g clip-path="url(#clip0_419_530)" fill="#47BF6F"><path d="M44.958 40.258V13c0-5.387-3.3-6.307-12.497-6.465l1.517-3.802c2.91.483 4.372 1.167 4.48 1.6a1.083 1.083 0 102.167 0C40.625.563 31.431 0 25.946 0c-4.379 0-14.57.422-14.57 4.333a1.083 1.083 0 002.166 0c.108-.433 1.56-1.124 4.474-1.608l1.523 3.806C10.346 6.693 7.042 7.613 7.042 13v27.258c0 3.25 2.437 6.45 5.231 7.227l-3.683 2.54a1.084 1.084 0 001.232 1.783l6.006-4.142h20.344l6.004 4.142a1.084 1.084 0 101.232-1.783l-3.78-2.608c3.878-.892 5.33-4.11 5.33-7.159zM25.946 2.167a57.079 57.079 0 015.815.274l-1.625 4.068c-1.285-.01-2.647-.01-4.136-.01-1.488.001-2.851.001-4.137.01l-1.63-4.074a56.344 56.344 0 015.713-.268zm16.846 38.091c0 1.958-.705 5.242-5.417 5.242H13.542c-1.892 0-4.334-2.542-4.334-5.242V13c0-3.928 1.57-4.333 16.792-4.333 15.223 0 16.792.405 16.792 4.333v27.258z"/><path d="M14.916 31.416h22.08c1.864 0 3.626-1.695 3.626-3.489V15.88C40.625 13.99 38.8 13 36.996 13h-22.08c-2.052 0-3.54 1.211-3.54 2.88v12.047c0 1.794 1.72 3.49 3.54 3.49zM13.542 15.88c0-.518.842-.712 1.373-.712h22.08c.612 0 1.46.248 1.46.713l.003 12.047c0 .58-.812 1.323-1.462 1.323h-22.08c-.629 0-1.374-.717-1.374-1.323V15.88zm22.75 18.786a4.333 4.333 0 100 8.667 4.333 4.333 0 000-8.667zm0 6.5a2.167 2.167 0 110-4.333 2.167 2.167 0 010 4.333zm-20.583-6.5a4.333 4.333 0 100 8.667 4.333 4.333 0 000-8.667zm0 6.5a2.167 2.167 0 110-4.333 2.167 2.167 0 010 4.333z"/></g><defs><clipPath id="clip0_419_530"><path fill="#fff" d="M0 0h52v52H0z"/></clipPath></defs></svg>