<svg width="52" height="52" fill="none" xmlns="http://www.w3.org/2000/svg"><g clip-path="url(#clip0_419_322)" fill="#47BF6F"><path d="M12.133 35.533a2.6 2.6 0 100 5.2 2.6 2.6 0 000-5.2zm0 3.467a.867.867 0 110-1.733.867.867 0 010 1.733zm27.734-3.467a2.6 2.6 0 100 5.2 2.6 2.6 0 000-5.2zm0 3.467a.866.866 0 110-1.733.866.866 0 010 1.733z"/><path d="M51.34 23.197l-5.97-6.724a2.6 2.6 0 00-1.95-.873h-7.887v-5.2a2.603 2.603 0 00-2.6-2.6H2.6A2.603 2.603 0 000 10.4v22.533a.866.866 0 00.867.867h.866v2.6a2.603 2.603 0 002.6 2.6h1.803a6.059 6.059 0 0011.995 0h15.738a6.059 6.059 0 0011.995 0H49.4a2.603 2.603 0 002.6-2.6V24.925c0-.638-.236-1.253-.66-1.728zm-49.607 8.87V10.4c0-.479.389-.866.867-.867h30.333c.479 0 .867.388.867.867v21.666H1.733zm4.403 5.2H4.333a.867.867 0 01-.866-.867v-2.6h4.429a6.05 6.05 0 00-1.76 3.466zm5.997 5.2a4.333 4.333 0 110-8.667 4.333 4.333 0 010 8.666zm8.667-5.2h-2.67a6.05 6.05 0 00-1.76-3.467h4.43v3.466zm7.8 0h-6.067V33.8H28.6v3.466zm5.27 0h-3.537V33.8h5.296a6.05 6.05 0 00-1.76 3.466zm5.997 5.2a4.333 4.333 0 110-8.667 4.333 4.333 0 010 8.666zm10.4-6.067a.867.867 0 01-.867.866h-3.536a6.071 6.071 0 00-5.997-5.2h-4.334V17.333H39V26a2.603 2.603 0 002.6 2.6h8.667v7.8zm0-9.534H41.6a.867.867 0 01-.867-.866v-8.667h2.687a.868.868 0 01.652.29l5.972 6.726a.869.869 0 01.223.576v1.941z"/></g><defs><clipPath id="clip0_419_322"><path fill="#fff" d="M0 0h52v52H0z"/></clipPath></defs></svg>