<svg width="52" height="52" fill="none" xmlns="http://www.w3.org/2000/svg"><g clip-path="url(#clip0_419_345)"><path d="M51.517 16.427L26.595.177a1.083 1.083 0 00-1.184 0L.493 16.427a1.083 1.083 0 001.184 1.814l2.655-1.734v32.244A3.25 3.25 0 007.583 52h36.841a3.25 3.25 0 003.25-3.25V16.507c.42.2 2.795 2.02 3.25 1.91a1.09 1.09 0 00.593-1.99zM37.922 49.834h-2.167V42.25a1.084 1.084 0 00-1.083-1.083h-3.255v-7.583a1.083 1.083 0 00-1.084-1.084h-8.666a1.083 1.083 0 00-1.084 1.084v7.583h-3.25a1.083 1.083 0 00-1.083 1.084v7.583h-2.167v-19.5h23.834l.005 19.5zM22.75 41.167v-6.5h6.5v6.5h-6.5zm-4.334 2.167h6.5v6.5h-6.5v-6.5zm8.667 6.5v-6.5h6.5v6.5h-6.5zM45.5 48.75a1.083 1.083 0 01-1.084 1.084h-4.333V29.25A1.083 1.083 0 0039 28.168H13a1.084 1.084 0 00-1.084 1.083v20.584H7.583A1.083 1.083 0 016.5 48.75V15.096L26 2.377l19.5 12.718V48.75zM34.666 21.668a1.083 1.083 0 01-1.083 1.083H18.417a1.084 1.084 0 010-2.166h15.166a1.084 1.084 0 011.089 1.083h-.005zm-16.25-6.5h15.167a1.083 1.083 0 010 2.167H18.417a1.083 1.083 0 110-2.167z" fill="#47BF6F"/></g><defs><clipPath id="clip0_419_345"><path fill="#fff" d="M0 0h52v52H0z"/></clipPath></defs></svg>