<svg width="52" height="52" fill="none" xmlns="http://www.w3.org/2000/svg"><g clip-path="url(#clip0_419_332)" fill="#47BF6F"><path d="M48.159 30.496a.776.776 0 00-.107-.385l-2.17-3.655a1.222 1.222 0 00-1.044-.595H27.264a1.22 1.22 0 00-1.044.594l-2.179 3.655c-.002.003-.003.007-.006.01l-.012.022H20.01a.762.762 0 100 1.524h3.925v1.56H20.01a.762.762 0 100 1.524h3.925v6.322H20.01a.762.762 0 100 1.524h3.925v1.561H20.01a.762.762 0 100 1.524h3.925v4.756H7.43a2.152 2.152 0 01-2.15-2.15V3.673c0-1.185.965-2.15 2.15-2.15h28.776l5.722 5.72v15.929a.762.762 0 101.523 0V6.928a.762.762 0 00-.223-.538L37.061.223A.761.761 0 0036.523 0H7.43a3.678 3.678 0 00-3.673 3.673v44.614A3.677 3.677 0 007.43 51.96h17.657c.109.025.22.04.336.04H46.67a1.49 1.49 0 001.489-1.489V30.496zm-2.1-.758h-6.55l-.411-2.353h5.564l1.397 2.353zm-11.747 1.523h3.795v5.397l-1.443-1.075a.762.762 0 00-.91 0l-1.442 1.075V31.26zm3.24-3.876l.41 2.353h-3.52l.37-2.353h2.74zM25.457 50.477V30.71l1.982-3.325h5.83l-.371 2.353H28.5a.762.762 0 100 1.523h4.287v6.914a.762.762 0 001.217.61l2.204-1.641 2.205 1.642a.763.763 0 001.216-.611V31.26h7.005v19.216H25.458z"/><path d="M17.786 4.5a.762.762 0 00-1.077 0l-1.374 1.374A4.4 4.4 0 0012.44 4.79a4.425 4.425 0 00-4.42 4.42 4.425 4.425 0 004.42 4.42 4.424 4.424 0 004.42-4.42c0-.779-.203-1.51-.558-2.146l1.485-1.485a.762.762 0 000-1.078zm-2.45 4.709a2.9 2.9 0 01-2.897 2.896 2.9 2.9 0 01-2.896-2.896 2.9 2.9 0 012.896-2.896c.688 0 1.319.24 1.816.642l-1.668 1.667-.218-.217a.761.761 0 10-1.077 1.077l.756.756a.76.76 0 001.077 0l2.032-2.031c.115.312.178.65.178 1.002zm21.657-2.305H20.009a.762.762 0 000 1.524h16.984a.761.761 0 100-1.524zM20.01 11.513h6.71a.761.761 0 100-1.524h-6.71a.762.762 0 000 1.524zm-2.224 4.379a.762.762 0 00-1.077 0l-1.374 1.374a4.397 4.397 0 00-2.896-1.085 4.425 4.425 0 00-4.42 4.42 4.425 4.425 0 004.42 4.419 4.424 4.424 0 004.42-4.42c0-.778-.203-1.51-.558-2.145l1.485-1.485a.762.762 0 000-1.078zm-2.45 4.709a2.9 2.9 0 01-2.897 2.896A2.9 2.9 0 019.543 20.6a2.9 2.9 0 012.896-2.897c.688 0 1.319.241 1.816.642l-1.668 1.668-.218-.218a.762.762 0 10-1.077 1.077l.756.757a.759.759 0 001.077 0l2.032-2.031c.115.312.178.65.178 1.002zm22.419-1.542a.762.762 0 00-.762-.762H20.009a.762.762 0 000 1.523h16.984a.76.76 0 00.761-.761zM20.01 21.38a.762.762 0 000 1.524h6.71a.761.761 0 100-1.523h-6.71zm-7.57 6.646a4.425 4.425 0 00-4.42 4.42 4.425 4.425 0 004.42 4.42 4.424 4.424 0 004.419-4.42 4.425 4.425 0 00-4.42-4.42zm0 7.316a2.9 2.9 0 01-2.897-2.896 2.9 2.9 0 012.896-2.896 2.9 2.9 0 012.896 2.896 2.9 2.9 0 01-2.896 2.896zm0 3.615a4.425 4.425 0 00-4.42 4.42 4.425 4.425 0 004.42 4.42 4.425 4.425 0 004.419-4.42 4.425 4.425 0 00-4.42-4.42zm0 7.316a2.9 2.9 0 01-2.897-2.896 2.9 2.9 0 012.896-2.897 2.9 2.9 0 012.896 2.897 2.9 2.9 0 01-2.896 2.896z"/></g><defs><clipPath id="clip0_419_332"><path fill="#fff" d="M0 0h52v52H0z"/></clipPath></defs></svg>