<svg width="52" height="52" viewBox="0 0 52 52" fill="none" xmlns="http://www.w3.org/2000/svg">
<path d="M49.088 46.6961C48.672 46.2801 48.048 46.2801 47.632 46.6961C46.956 47.3721 45.708 47.3721 45.032 46.6961C44.044 45.7081 42.692 45.3961 41.444 45.6561C43.888 42.3281 45.396 38.2721 45.708 34.0081C45.812 32.6561 44.98 31.3561 43.628 30.8881L40.04 29.5361V20.3841C40.04 18.6681 38.636 17.2641 36.92 17.2641H35.88V12.0641H39C39.572 12.0641 40.04 11.5961 40.04 11.0241C40.04 10.4521 39.572 9.9841 39 9.9841H34.84H29.64V6.3441C29.64 4.3161 28.028 2.7041 26 2.7041C23.972 2.7041 22.36 4.3161 22.36 6.3441V9.9841H17.16H13C12.428 9.9841 11.96 10.4521 11.96 11.0241C11.96 11.5961 12.428 12.0641 13 12.0641H16.12V17.2641H15.08C13.364 17.2641 11.96 18.6681 11.96 20.3841V29.5361L8.37198 30.8361C7.07198 31.3041 6.23998 32.6041 6.29198 33.9561C6.60398 38.2201 8.11198 42.2761 10.556 45.6041C10.296 45.5521 10.036 45.5001 9.72398 45.5001C8.68398 45.5001 7.69598 45.9161 6.96798 46.6441C6.29198 47.3201 5.04398 47.3201 4.36798 46.6441C3.95198 46.2281 3.32798 46.2281 2.91198 46.6441C2.49598 47.0601 2.49598 47.6841 2.91198 48.1001C3.63998 48.8281 4.62798 49.2441 5.66798 49.2441C6.70798 49.2441 7.69598 48.8281 8.42398 48.1001C9.09998 47.4241 10.348 47.4241 11.024 48.1001C11.908 48.9841 13.156 49.4001 14.404 49.1921H14.508H14.56H14.612C15.34 49.0361 16.016 48.6721 16.536 48.1521C17.212 47.4761 18.46 47.4761 19.136 48.1521C19.864 48.8801 20.852 49.2961 21.892 49.2961C22.932 49.2961 23.92 48.8801 24.648 48.1521C25.376 47.4241 26.52 47.4241 27.248 48.1521C28.756 49.6601 31.252 49.6601 32.76 48.1521C33.488 47.4241 34.632 47.4241 35.36 48.1521C35.88 48.6721 36.608 49.0361 37.336 49.1921H37.388C37.648 49.2441 37.908 49.2441 38.116 49.2441C39.156 49.2441 40.144 48.8281 40.872 48.1001C41.6 47.3721 42.744 47.3721 43.472 48.1001C44.2 48.8281 45.188 49.2441 46.228 49.2441C47.268 49.2441 48.256 48.8281 48.984 48.1001C49.504 47.7361 49.504 47.1121 49.088 46.6961ZM24.44 6.3441C24.44 5.4601 25.116 4.7841 26 4.7841C26.884 4.7841 27.56 5.4601 27.56 6.3441V9.9841H24.44V6.3441ZM18.2 12.0641H23.4H28.6H33.8V17.2641H18.2V12.0641ZM14.04 20.3841C14.04 19.8121 14.508 19.3441 15.08 19.3441H36.92C37.492 19.3441 37.96 19.8121 37.96 20.3841V28.8081L26.364 24.5961C26.312 24.5961 26.312 24.5961 26.26 24.5961H26.208C26.104 24.5961 25.948 24.5961 25.844 24.5961H25.792C25.74 24.5961 25.74 24.5961 25.688 24.5961L14.04 28.8081V20.3841ZM31.356 46.6961C30.628 47.4241 29.484 47.4241 28.756 46.6961C27.248 45.1881 24.752 45.1881 23.244 46.6961C22.568 47.3721 21.32 47.3721 20.644 46.6961C19.916 45.9681 18.928 45.5521 17.888 45.5521C16.848 45.5521 15.86 45.9681 15.132 46.6961C14.976 46.8521 14.82 46.9561 14.612 47.0601C11.024 43.7321 8.73598 38.9481 8.37198 33.8521C8.31998 33.4361 8.63198 32.9681 9.04798 32.8121L24.96 27.0401V41.1841C24.96 41.7561 25.428 42.2241 26 42.2241C26.572 42.2241 27.04 41.7561 27.04 41.1841V27.0401L42.952 32.7601C43.368 32.9161 43.68 33.3321 43.628 33.8001C43.264 38.8961 41.028 43.6801 37.388 47.0081C37.232 46.9041 37.024 46.8001 36.868 46.6441C35.36 45.1361 32.864 45.1361 31.356 46.6961Z" fill="#47BF6F"/>
</svg>
