<svg width="52" height="52" viewBox="0 0 52 52" fill="none" xmlns="http://www.w3.org/2000/svg">
<g clip-path="url(#clip0_419_351)">
<path d="M42.4127 18.0657H33.6784L23.811 10.2456C23.6625 10.1282 23.4797 10.0645 23.2901 10.0645H18.1027C17.4963 10.0645 17.0845 10.7195 17.3462 11.2663L20.6079 18.0657H8.46174L4.88884 14.5339C4.73116 14.3771 4.55503 14.2806 4.29839 14.2916L0.837871 14.2949C0.374903 14.2957 0 14.6706 0 15.1336V28.4154C0 28.7593 0.209677 29.0679 0.529226 29.1954L4.33026 30.7051C4.42923 30.7437 4.53406 30.7638 4.63974 30.7638H20.7673L17.3101 40.8241C17.1248 41.3626 17.5399 41.9354 18.1027 41.9354H23.2901C23.5275 41.9354 23.7531 41.8348 23.9125 41.6595L33.7623 30.7638H42.4127C45.7801 30.7638 52 28.1462 52 24.4148C52 20.6834 45.7801 18.0657 42.4127 18.0657ZM19.4354 11.7419H22.9983L30.9769 18.0657H22.469L19.4354 11.7419ZM22.9177 40.258H19.2777L22.5412 30.7638H31.5011L22.9177 40.258ZM42.4127 29.0864H4.79994L1.67742 27.8459V15.9715L3.95535 15.969L7.52826 19.5008C7.68594 19.6568 7.89729 19.7432 8.11787 19.7432H42.4135C45.2484 19.7432 50.3234 22.0983 50.3234 24.4148C50.3226 26.7313 45.2484 29.0864 42.4127 29.0864Z" fill="#47BF6F"/>
<path d="M42.4126 23.5173H40.7352C40.2722 23.5173 39.8965 23.1424 39.8965 22.6786C39.8965 22.2147 40.2722 21.8398 40.7352 21.8398H42.4126C42.8756 21.8398 43.2513 22.2147 43.2513 22.6786C43.2513 23.1424 42.8764 23.5173 42.4126 23.5173Z" fill="#47BF6F"/>
<path d="M37.1967 23.5173H33.6574C33.1944 23.5173 32.8187 23.1424 32.8187 22.6786C32.8187 22.2147 33.1944 21.8398 33.6574 21.8398H37.1967C37.6597 21.8398 38.0354 22.2147 38.0354 22.6786C38.0354 23.1424 37.6597 23.5173 37.1967 23.5173ZM30.118 23.5173H26.5795C26.1165 23.5173 25.7408 23.1424 25.7408 22.6786C25.7408 22.2147 26.1165 21.8398 26.5795 21.8398H30.118C30.581 21.8398 30.9567 22.2147 30.9567 22.6786C30.9567 23.1424 30.581 23.5173 30.118 23.5173ZM23.0402 23.5173H19.5008C19.0378 23.5173 18.6621 23.1424 18.6621 22.6786C18.6621 22.2147 19.0378 21.8398 19.5008 21.8398H23.0402C23.5031 21.8398 23.8789 22.2147 23.8789 22.6786C23.8789 23.1424 23.5031 23.5173 23.0402 23.5173ZM15.9623 23.5173H12.4229C11.96 23.5173 11.5842 23.1424 11.5842 22.6786C11.5842 22.2147 11.96 21.8398 12.4229 21.8398H15.9623C16.4253 21.8398 16.801 22.2147 16.801 22.6786C16.801 23.1424 16.4253 23.5173 15.9623 23.5173Z" fill="#47BF6F"/>
<path d="M8.8843 23.5173H7.20687C6.74391 23.5173 6.36816 23.1424 6.36816 22.6786C6.36816 22.2147 6.74391 21.8398 7.20687 21.8398H8.8843C9.34726 21.8398 9.72301 22.2147 9.72301 22.6786C9.72301 23.1424 9.34726 23.5173 8.8843 23.5173Z" fill="#47BF6F"/>
<path d="M14.7738 34.614H7.01156C6.54859 34.614 6.17285 34.2391 6.17285 33.7752C6.17285 33.3114 6.54859 32.9365 7.01156 32.9365H14.7738C15.2368 32.9365 15.6125 33.3114 15.6125 33.7752C15.6125 34.2391 15.2368 34.614 14.7738 34.614Z" fill="#47BF6F"/>
<path d="M13.2255 38.4714H5.46322C5.00025 38.4714 4.62451 38.0965 4.62451 37.6326C4.62451 37.1688 5.00025 36.7939 5.46322 36.7939H13.2255C13.6884 36.7939 14.0642 37.1688 14.0642 37.6326C14.0642 38.0965 13.6884 38.4714 13.2255 38.4714Z" fill="#47BF6F"/>
</g>
<defs>
<clipPath id="clip0_419_351">
<rect width="52" height="52" fill="white"/>
</clipPath>
</defs>
</svg>
