<svg width="52" height="52" viewBox="0 0 52 52" fill="none" xmlns="http://www.w3.org/2000/svg">
<g clip-path="url(#clip0_419_530)">
<path d="M44.9583 40.2585V12.9999C44.9583 7.61256 41.6575 6.69281 32.461 6.53458L33.9777 2.73323C36.8875 3.21636 38.35 3.89997 38.4583 4.33333C38.4583 4.93163 38.9433 5.41669 39.5416 5.41669C40.1399 5.41669 40.625 4.93163 40.625 4.33333C40.625 0.563363 31.4308 0 25.946 0C21.5671 0 11.3752 0.422497 11.3752 4.33333C11.3752 4.93163 11.8603 5.41669 12.4586 5.41669C13.0569 5.41669 13.5419 4.93163 13.5419 4.33333C13.6503 3.89997 15.1019 3.20884 18.016 2.7246L19.5391 6.53143C10.3461 6.69281 7.04187 7.61256 7.04187 12.9999V40.2585C7.04187 43.5085 9.47935 46.7086 12.2732 47.4854L8.58987 50.0247C8.0975 50.3649 7.974 51.0397 8.31413 51.5322C8.65426 52.0246 9.32914 52.1481 9.82161 51.8079L15.8276 47.6664H36.1724L42.1762 51.8079C42.6686 52.1481 43.3436 52.0247 43.6837 51.5322C44.0238 51.0398 43.9004 50.3649 43.408 50.0247L39.6271 47.4171C43.5056 46.5245 44.9583 43.307 44.9583 40.2585ZM25.946 2.16662C27.8878 2.159 29.8288 2.25051 31.7613 2.44073L30.1363 6.50858C28.8514 6.49995 27.4886 6.49995 26.0001 6.49995C24.5116 6.49995 23.1487 6.49995 21.8629 6.50858L20.2335 2.43525C22.1319 2.24908 24.0384 2.1594 25.946 2.16662ZM42.7916 40.2585C42.7916 42.2162 42.0875 45.4996 37.375 45.4996H13.5418C11.6503 45.4996 9.20849 42.9582 9.20849 40.2585V12.9999C9.20849 9.0718 10.7771 8.66656 26 8.66656C41.2229 8.66656 42.7916 9.0718 42.7916 12.9999V40.2585Z" fill="#47BF6F"/>
<path d="M14.9156 31.4165H36.9959C38.8603 31.4165 40.6218 29.7211 40.6218 27.9271V15.8795C40.625 13.9891 38.8007 13 36.9959 13H14.9156C12.8637 13 11.3752 14.2111 11.3752 15.8795V27.9271C11.3752 29.7211 13.0956 31.4165 14.9156 31.4165ZM13.5419 15.8795C13.5419 15.3606 14.3836 15.1666 14.9155 15.1666H36.9958C37.6068 15.1666 38.455 15.4147 38.455 15.8795L38.4583 27.9271C38.4583 28.5078 37.6458 29.2499 36.9958 29.2499H14.9156C14.2872 29.2499 13.542 28.5327 13.542 27.9271V15.8795H13.5419Z" fill="#47BF6F"/>
<path d="M36.2916 34.666C33.8984 34.666 31.9583 36.606 31.9583 38.9993C31.9583 41.3926 33.8984 43.3327 36.2916 43.3327C38.6848 43.3327 40.6249 41.3927 40.6249 38.9993C40.6249 36.6061 38.6848 34.666 36.2916 34.666ZM36.2916 41.166C35.095 41.166 34.125 40.196 34.125 38.9993C34.125 37.8027 35.095 36.8327 36.2916 36.8327C37.4882 36.8327 38.4582 37.8027 38.4582 38.9993C38.4583 40.196 37.4882 41.166 36.2916 41.166Z" fill="#47BF6F"/>
<path d="M15.7086 34.666C13.3154 34.666 11.3752 36.606 11.3752 38.9993C11.3752 41.3926 13.3154 43.3327 15.7086 43.3327C18.1018 43.3327 20.0419 41.3927 20.0419 38.9993C20.0418 36.6061 18.1018 34.666 15.7086 34.666ZM15.7086 41.166C14.512 41.166 13.542 40.196 13.542 38.9993C13.542 37.8027 14.512 36.8327 15.7086 36.8327C16.9052 36.8327 17.8752 37.8027 17.8752 38.9993C17.8752 40.196 16.9052 41.166 15.7086 41.166Z" fill="#47BF6F"/>
</g>
<defs>
<clipPath id="clip0_419_530">
<rect width="52" height="52" fill="white"/>
</clipPath>
</defs>
</svg>
