<svg width="52" height="52" viewBox="0 0 52 52" fill="none" xmlns="http://www.w3.org/2000/svg">
<g clip-path="url(#clip0_419_345)">
<path d="M51.5167 16.4271L26.5946 0.177063C26.4185 0.0621591 26.2128 0.000976562 26.0026 0.000976562C25.7923 0.000976563 25.5866 0.0621591 25.4105 0.177063L0.493855 16.4271C0.262 16.5878 0.101989 16.8326 0.0478493 17.1095C-0.00629033 17.3864 0.0497125 17.6734 0.203949 17.9097C0.358185 18.1459 0.598486 18.3126 0.873751 18.3744C1.14902 18.4362 1.43753 18.3882 1.67794 18.2406L4.33319 16.5072V48.7505C4.33319 49.6124 4.6756 50.4391 5.28509 51.0486C5.89459 51.6581 6.72124 52.0005 7.58319 52.0005H44.4241C45.2861 52.0005 46.1127 51.6581 46.7222 51.0486C47.3317 50.4391 47.6741 49.6124 47.6741 48.7505V16.5072C48.0944 16.7076 50.4691 18.5266 50.9241 18.4171C51.1552 18.4126 51.3788 18.3348 51.5627 18.1948C51.7467 18.0548 51.8813 17.86 51.9473 17.6385C52.0132 17.417 52.0071 17.1803 51.9297 16.9625C51.8523 16.7448 51.7076 16.5573 51.5167 16.4271ZM37.9219 49.8338H35.7553V42.2505C35.7553 41.9632 35.6411 41.6876 35.438 41.4844C35.2348 41.2813 34.9593 41.1671 34.6719 41.1671H31.4165V33.5838C31.4165 33.2965 31.3024 33.0209 31.0992 32.8178C30.8961 32.6146 30.6205 32.5005 30.3332 32.5005H21.6665C21.3792 32.5005 21.1037 32.6146 20.9005 32.8178C20.6973 33.0209 20.5832 33.2965 20.5832 33.5838V41.1671H17.3332C17.0459 41.1671 16.7703 41.2813 16.5672 41.4844C16.364 41.6876 16.2499 41.9632 16.2499 42.2505V49.8338H14.0832V30.3338H37.9165L37.9219 49.8338ZM22.7499 41.1671V34.6671H29.2499V41.1671H22.7499ZM18.4165 43.3338H24.9165V49.8338H18.4165V43.3338ZM27.0832 49.8338V43.3338H33.5832V49.8338H27.0832ZM45.4999 48.7505C45.4999 49.0378 45.3857 49.3134 45.1826 49.5165C44.9794 49.7197 44.7038 49.8338 44.4165 49.8338H40.0832V29.2505C40.0832 28.9632 39.9691 28.6876 39.7659 28.4844C39.5627 28.2813 39.2872 28.1671 38.9999 28.1671H12.9999C12.7125 28.1671 12.437 28.2813 12.2338 28.4844C12.0307 28.6876 11.9165 28.9632 11.9165 29.2505V49.8338H7.58319C7.29587 49.8338 7.02032 49.7197 6.81716 49.5165C6.61399 49.3134 6.49986 49.0378 6.49986 48.7505V15.0946L25.9999 2.37731L45.4999 15.0946V48.7505ZM34.6665 21.6671C34.6665 21.9545 34.5524 22.23 34.3492 22.4332C34.1461 22.6363 33.8705 22.7505 33.5832 22.7505H18.4165C18.1292 22.7505 17.8537 22.6363 17.6505 22.4332C17.4473 22.23 17.3332 21.9545 17.3332 21.6671C17.3332 21.3798 17.4473 21.1043 17.6505 20.9011C17.8537 20.6979 18.1292 20.5838 18.4165 20.5838H33.5832C33.7259 20.5831 33.8674 20.6106 33.9994 20.6647C34.1315 20.7188 34.2516 20.7985 34.3527 20.8992C34.4539 20.9999 34.5342 21.1195 34.589 21.2513C34.6437 21.3831 34.6719 21.5244 34.6719 21.6671H34.6665ZM18.4165 15.1671H33.5832C33.8705 15.1671 34.1461 15.2813 34.3492 15.4844C34.5524 15.6876 34.6665 15.9632 34.6665 16.2505C34.6665 16.5378 34.5524 16.8133 34.3492 17.0165C34.1461 17.2197 33.8705 17.3338 33.5832 17.3338H18.4165C18.1292 17.3338 17.8537 17.2197 17.6505 17.0165C17.4473 16.8133 17.3332 16.5378 17.3332 16.2505C17.3332 15.9632 17.4473 15.6876 17.6505 15.4844C17.8537 15.2813 18.1292 15.1671 18.4165 15.1671Z" fill="#47BF6F"/>
</g>
<defs>
<clipPath id="clip0_419_345">
<rect width="52" height="52" fill="white"/>
</clipPath>
</defs>
</svg>
