<svg width="52" height="52" viewBox="0 0 52 52" fill="none" xmlns="http://www.w3.org/2000/svg">
<g clip-path="url(#clip0_419_332)">
<path d="M48.1589 30.4957C48.1581 30.3628 48.12 30.2248 48.0522 30.1109L45.8828 26.4562C45.6646 26.0893 45.2643 25.8611 44.8375 25.8611H27.2652C26.8391 25.8611 26.4388 26.0885 26.2206 26.4547L24.0421 30.1097C24.0402 30.1133 24.0386 30.1172 24.0362 30.1208C24.0322 30.128 24.0279 30.1351 24.0239 30.1422H20.0098C19.5889 30.1422 19.2481 30.4834 19.2481 30.904C19.2481 31.3249 19.5889 31.6657 20.0098 31.6657H23.9346V33.2268H20.0098C19.5889 33.2268 19.2481 33.568 19.2481 33.9885C19.2481 34.4095 19.5889 34.7502 20.0098 34.7502H23.9346V41.0725H20.0098C19.5889 41.0725 19.2481 41.4137 19.2481 41.8342C19.2481 42.2552 19.5889 42.5959 20.0098 42.5959H23.9346V44.1571H20.0098C19.5889 44.1571 19.2481 44.4983 19.2481 44.9188C19.2481 45.3397 19.5889 45.6805 20.0098 45.6805H23.9346V50.4373H7.43112C6.2457 50.4373 5.28125 49.4728 5.28125 48.2874V3.67331C5.28125 2.48788 6.2457 1.52344 7.43112 1.52344H36.2074L41.9286 7.24387V23.1717C41.9286 23.5927 42.2698 23.9334 42.6904 23.9334C43.1109 23.9334 43.4521 23.5927 43.4521 23.1717V6.92847C43.4521 6.72614 43.3719 6.53253 43.2291 6.38971L37.0612 0.222961C36.9184 0.0801391 36.7248 0 36.5228 0H7.43112C5.40582 0 3.75781 1.64801 3.75781 3.67331V48.287C3.75781 50.3127 5.40582 51.9603 7.43112 51.9603H25.0883C25.1966 51.9853 25.3085 52 25.4236 52H46.67C47.4908 52 48.1589 51.3319 48.1589 50.5111V30.4997C48.1589 30.4985 48.1589 30.4969 48.1589 30.4957ZM46.0594 29.738H39.5086L39.0976 27.3846H44.6621L46.0594 29.738ZM34.3119 31.2614H38.107V36.6577L36.6645 35.583C36.3943 35.3818 36.0241 35.3818 35.7544 35.583L34.3119 36.6577V31.2614ZM37.5511 27.3846L37.9622 29.738H34.4412L34.8117 27.3846H37.5511ZM25.4581 50.4766V30.7096L27.4397 27.3846H33.2697L32.8987 29.738H28.5014C28.0808 29.738 27.7397 30.0788 27.7397 30.4997C27.7397 30.9206 28.0808 31.2614 28.5014 31.2614H32.7884V38.1748C32.7884 38.4628 32.9507 38.7263 33.2082 38.8556C33.4656 38.9845 33.7739 38.9579 34.0052 38.7858L36.2094 37.1437L38.4136 38.7858C38.5477 38.8853 38.7076 38.9365 38.8687 38.9365C38.9853 38.9365 39.1024 38.9099 39.2103 38.8556C39.4677 38.7263 39.6304 38.4628 39.6304 38.1748V31.2614H46.6354V50.4766H25.4581Z" fill="#47BF6F"/>
<path d="M17.786 4.50035C17.4885 4.20281 17.0065 4.20321 16.7089 4.50035L15.3351 5.87423C14.5591 5.19939 13.5466 4.78917 12.4393 4.78917C10.0026 4.78917 8.01978 6.77202 8.01978 9.20873C8.01978 11.6454 10.0026 13.6283 12.4393 13.6283C14.8764 13.6283 16.8589 11.6458 16.8589 9.20873C16.8589 8.43035 16.6558 7.69878 16.3011 7.06282L17.7864 5.57787C18.0836 5.28032 18.0836 4.7979 17.786 4.50035ZM15.3354 9.20873C15.3354 10.8056 14.0366 12.1048 12.4393 12.1048C10.8425 12.1048 9.54321 10.8056 9.54321 9.20873C9.54321 7.6119 10.8425 6.31261 12.4393 6.31261C13.1265 6.31261 13.7577 6.55342 14.2548 6.95452L12.5869 8.62236L12.3687 8.40456C12.0712 8.10701 11.5891 8.10701 11.2916 8.40456C10.994 8.70211 10.994 9.18453 11.2916 9.48168L12.0482 10.2382C12.1969 10.387 12.3917 10.4616 12.5869 10.4616C12.7817 10.4616 12.9765 10.387 13.1253 10.2382L15.1569 8.20699C15.2724 8.51921 15.3354 8.85643 15.3354 9.20873Z" fill="#47BF6F"/>
<path d="M36.9928 6.9043H20.0093C19.5887 6.9043 19.2476 7.24548 19.2476 7.66602C19.2476 8.08694 19.5887 8.42773 20.0093 8.42773H36.9928C37.4138 8.42773 37.7545 8.08694 37.7545 7.66602C37.7545 7.24548 37.4138 6.9043 36.9928 6.9043Z" fill="#47BF6F"/>
<path d="M20.0093 11.5127H26.7195C27.1405 11.5127 27.4813 11.1719 27.4813 10.751C27.4813 10.3304 27.1405 9.98926 26.7195 9.98926H20.0093C19.5887 9.98926 19.2476 10.3304 19.2476 10.751C19.2476 11.1719 19.5887 11.5127 20.0093 11.5127Z" fill="#47BF6F"/>
<path d="M17.786 15.8921C17.4885 15.5946 17.0065 15.5946 16.7089 15.8921L15.3351 17.266C14.5591 16.5907 13.5466 16.1809 12.4393 16.1809C10.0026 16.1809 8.01978 18.1634 8.01978 20.6005C8.01978 23.0376 10.0026 25.02 12.4393 25.02C14.8764 25.02 16.8589 23.0376 16.8589 20.6005C16.8589 19.8221 16.6558 19.0905 16.3011 18.4546L17.7864 16.9696C18.0836 16.6717 18.0836 16.1897 17.786 15.8921ZM15.3354 20.6005C15.3354 22.1973 14.0366 23.4966 12.4393 23.4966C10.8425 23.4966 9.54321 22.1973 9.54321 20.6005C9.54321 19.0036 10.8425 17.7044 12.4393 17.7044C13.1265 17.7044 13.7577 17.9452 14.2548 18.3463L12.5869 20.0141L12.3687 19.7963C12.0712 19.4988 11.5891 19.4988 11.2916 19.7963C10.994 20.0939 10.994 20.5763 11.2916 20.8734L12.0482 21.63C12.1969 21.7788 12.3917 21.8533 12.5869 21.8533C12.7817 21.8533 12.9765 21.7788 13.1253 21.63L15.1569 19.5987C15.2724 19.911 15.3354 20.2486 15.3354 20.6005Z" fill="#47BF6F"/>
<path d="M37.7545 19.0586C37.7545 18.6381 37.4138 18.2969 36.9928 18.2969H20.0093C19.5887 18.2969 19.2476 18.6381 19.2476 19.0586C19.2476 19.4795 19.5887 19.8203 20.0093 19.8203H36.9928C37.4138 19.8203 37.7545 19.4795 37.7545 19.0586Z" fill="#47BF6F"/>
<path d="M20.0093 21.3809C19.5887 21.3809 19.2476 21.722 19.2476 22.1426C19.2476 22.5635 19.5887 22.9043 20.0093 22.9043H26.7195C27.1405 22.9043 27.4813 22.5635 27.4813 22.1426C27.4813 21.722 27.1405 21.3809 26.7195 21.3809H20.0093Z" fill="#47BF6F"/>
<path d="M12.4393 28.0264C10.0026 28.0264 8.01978 30.0092 8.01978 32.4459C8.01978 34.883 10.0026 36.8655 12.4393 36.8655C14.8764 36.8655 16.8589 34.883 16.8589 32.4459C16.8589 30.0092 14.8764 28.0264 12.4393 28.0264ZM12.4393 35.342C10.8425 35.342 9.54321 34.0428 9.54321 32.4459C9.54321 30.8491 10.8425 29.5498 12.4393 29.5498C14.0366 29.5498 15.3354 30.8491 15.3354 32.4459C15.3354 34.0428 14.0362 35.342 12.4393 35.342Z" fill="#47BF6F"/>
<path d="M12.4393 38.957C10.0026 38.957 8.01978 40.9399 8.01978 43.377C8.01978 45.8137 10.0026 47.7965 12.4393 47.7965C14.8764 47.7965 16.8589 45.8137 16.8589 43.377C16.8589 40.9399 14.8764 38.957 12.4393 38.957ZM12.4393 46.2727C10.8425 46.2727 9.54321 44.9738 9.54321 43.3766C9.54321 41.7798 10.8425 40.4805 12.4393 40.4805C14.0366 40.4805 15.3354 41.7798 15.3354 43.3766C15.3354 44.9738 14.0362 46.2727 12.4393 46.2727Z" fill="#47BF6F"/>
</g>
<defs>
<clipPath id="clip0_419_332">
<rect width="52" height="52" fill="white"/>
</clipPath>
</defs>
</svg>
