<svg width="24" height="24" fill="none" xmlns="http://www.w3.org/2000/svg"><path fill-rule="evenodd" clip-rule="evenodd" d="M12 2.083c-5.468 0-9.917 4.449-9.917 9.917S6.532 21.917 12 21.917s9.917-4.449 9.917-9.917S17.468 2.083 12 2.083zm0 21.584C5.567 23.667.333 18.433.333 12S5.567.333 12 .333 23.667 5.567 23.667 12 18.433 23.667 12 23.667z" fill="#6C6C6C"/><path fill-rule="evenodd" clip-rule="evenodd" d="M16.003 16.308a.88.88 0 01-.448-.123l-4.398-2.623a.88.88 0 01-.427-.753V7.153a.875.875 0 011.75 0v5.159l3.972 2.368a.877.877 0 01-.449 1.628z" fill="#6C6C6C"/></svg>