<svg width="25" height="25" fill="none" xmlns="http://www.w3.org/2000/svg"><mask id="mask0_42_1240" style="mask-type:alpha" maskUnits="userSpaceOnUse" x="0" y="0" width="25" height="25"><path fill-rule="evenodd" clip-rule="evenodd" d="M.333.333H24.48v24.114H.333V.333z" fill="#fff"/></mask><g mask="url(#mask0_42_1240)"><path fill-rule="evenodd" clip-rule="evenodd" d="M6.916 2.083c-3.388 0-4.833 1.722-4.833 5.755v9.1c0 3.714 2.05 5.76 5.775 5.76h9.079c3.715 0 5.76-2.046 5.76-5.76v-.004l.032-5.793c0-3.965-1.36-5.511-4.854-5.511h-3.302a3.561 3.561 0 01-2.829-1.414L10.68 2.8a1.795 1.795 0 00-1.43-.717H6.916zm10.02 22.364H7.859c-4.641 0-7.525-2.878-7.525-7.51V7.838c0-4.98 2.215-7.505 6.583-7.505H9.25a3.552 3.552 0 012.829 1.417l1.063 1.414c.337.448.872.715 1.432.716h3.3c4.507 0 6.605 2.309 6.605 7.266l-.032 5.795c-.001 4.63-2.878 7.506-7.51 7.506z" fill="#6C6C6C"/></g><path fill-rule="evenodd" clip-rule="evenodd" d="M17.502 16.332H7.31a.875.875 0 010-1.75H17.5a.875.875 0 010 1.75z" fill="#6C6C6C"/></svg>