<svg width="44" height="44" viewBox="0 0 44 44" fill="none" xmlns="http://www.w3.org/2000/svg">
<g clip-path="url(#clip0_419_115)">
<path d="M43.6372 21.9805L36.2423 14.3398C35.9996 14.0889 35.6653 13.9473 35.3161 13.9473H30.5907V8.38574C30.5907 7.67384 30.0135 7.09668 29.3016 7.09668H5.35898C4.64707 7.09668 4.06991 7.67384 4.06991 8.38574V12.2541H3.09418C2.38227 12.2541 1.80512 12.8313 1.80512 13.5432C1.80512 14.2551 2.38227 14.8323 3.09418 14.8323H4.06991V17.4116H1.28906C0.577156 17.4116 0 17.9887 0 18.7007C0 19.4126 0.577156 19.9897 1.28906 19.9897H4.06991V31.8282C4.06991 32.5401 4.64707 33.1173 5.35898 33.1173H8.10287C8.35278 33.9491 8.80593 34.7114 9.4374 35.3429C10.443 36.3486 11.7801 36.9024 13.2023 36.9024C14.6245 36.9024 15.9615 36.3486 16.9672 35.3429C17.6063 34.7038 18.0478 33.9412 18.2934 33.1315H30.6035C30.8492 33.9412 31.2907 34.7038 31.9297 35.3429C32.9354 36.3486 34.2725 36.9024 35.6947 36.9024C37.1168 36.9024 38.4538 36.3486 39.4596 35.3429C40.0986 34.7038 40.5402 33.9412 40.7858 33.1315H42.7109C43.4228 33.1315 44 32.5543 44 31.8424V22.877C44 22.5423 43.8699 22.2209 43.6372 21.9805ZM39.6694 21.5879H30.5545V16.5254H34.7698L39.6694 21.5879ZM6.64804 19.9896H13.3574C14.0693 19.9896 14.6465 19.4125 14.6465 18.7006C14.6465 17.9887 14.0693 17.4115 13.3574 17.4115H6.64804V14.8322H14.303C15.0149 14.8322 15.5921 14.255 15.5921 13.5431C15.5921 12.8312 15.0149 12.254 14.303 12.254H6.64804V9.67472H14.303H28.0124L27.9763 30.5532H18.4253C18.2298 29.5484 17.7439 28.5894 16.9672 27.8127C15.9616 26.807 14.6245 26.2532 13.2023 26.2532C11.7801 26.2532 10.4431 26.807 9.4374 27.8127C8.68115 28.5689 8.18056 29.5126 7.9787 30.539H6.64804V19.9896ZM15.1442 33.5199C14.6255 34.0386 13.9358 34.3243 13.2023 34.3243C12.4688 34.3243 11.7791 34.0386 11.2604 33.5199C10.7417 33.0012 10.456 32.3114 10.456 31.5779C10.456 30.8442 10.7417 30.1545 11.2604 29.6358C11.7791 29.1171 12.4688 28.8314 13.2023 28.8314C13.9358 28.8314 14.6255 29.1171 15.1442 29.6358C16.215 30.7066 16.215 32.449 15.1442 33.5199ZM37.6364 33.5199C37.1177 34.0386 36.428 34.3243 35.6945 34.3243C34.961 34.3243 34.2713 34.0386 33.7526 33.5199C32.6818 32.449 32.6818 30.7067 33.7526 29.6359C34.2713 29.1171 34.961 28.8315 35.6945 28.8315C36.428 28.8315 37.1177 29.1171 37.6364 29.6359C38.1551 30.1546 38.4407 30.8443 38.4407 31.578C38.4408 32.3114 38.1551 33.0012 37.6364 33.5199ZM40.9176 30.5532C40.7221 29.5485 40.2361 28.5895 39.4594 27.8128C38.4538 26.8071 37.1167 26.2533 35.6945 26.2533C34.2723 26.2533 32.9353 26.8071 31.9296 27.8128C31.2448 28.4976 30.7874 29.3243 30.5544 30.199V24.166H41.4219V30.5532H40.9176Z" fill="#47BF6F"/>
</g>
<defs>
<clipPath id="clip0_419_115">
<rect width="44" height="44" fill="white"/>
</clipPath>
</defs>
</svg>
