<svg width="45" height="40" viewBox="0 0 45 40" fill="none" xmlns="http://www.w3.org/2000/svg">
<path d="M22.5 15.7891C26.6226 15.7891 29.9766 12.4351 29.9766 8.3125C29.9766 4.18991 26.6226 0.835938 22.5 0.835938C18.3774 0.835938 15.0234 4.18991 15.0234 8.3125C15.0234 12.4351 18.3774 15.7891 22.5 15.7891ZM22.5 3.41406C25.201 3.41406 27.3984 5.61148 27.3984 8.3125C27.3984 11.0135 25.201 13.2109 22.5 13.2109C19.799 13.2109 17.6016 11.0135 17.6016 8.3125C17.6016 5.61148 19.799 3.41406 22.5 3.41406Z" fill="#47BF6F"/>
<path d="M37.625 15.7891C40.2312 15.7891 42.3516 13.6687 42.3516 11.0625C42.3516 8.45627 40.2312 6.33594 37.625 6.33594C35.0188 6.33594 32.8984 8.45627 32.8984 11.0625C32.8984 13.6687 35.0188 15.7891 37.625 15.7891ZM37.625 8.91406C38.8096 8.91406 39.7734 9.87785 39.7734 11.0625C39.7734 12.2471 38.8096 13.2109 37.625 13.2109C36.4404 13.2109 35.4766 12.2471 35.4766 11.0625C35.4766 9.87785 36.4404 8.91406 37.625 8.91406Z" fill="#47BF6F"/>
<path d="M38.6648 18.7109H36.6711C34.3216 18.7109 32.2935 20.099 31.3694 22.0927C29.4666 20.0156 26.7335 18.7109 23.7013 18.7109H21.2988C18.2665 18.7109 15.5335 20.0156 13.6307 22.0927C12.7065 20.099 10.6784 18.7109 8.32891 18.7109H6.33516C3.11766 18.7109 0.5 21.3128 0.5 24.5109V33.8961C0.5 35.2845 1.63386 36.4141 3.02759 36.4141H10.9104C11.0426 37.9523 12.3361 39.1641 13.9081 39.1641H31.0919C32.6639 39.1641 33.9574 37.9523 34.0897 36.4141H41.8824C43.3258 36.4141 44.5001 35.2445 44.5001 33.8067V24.5109C44.5 21.3128 41.8823 18.7109 38.6648 18.7109ZM3.07812 24.5109C3.07812 22.7344 4.53923 21.2891 6.33516 21.2891H8.32891C10.1248 21.2891 11.5859 22.7344 11.5859 24.5109V25.3935C10.7191 27.6506 10.8984 29.0032 10.8984 33.8359H3.07812V24.5109ZM31.5234 36.1544C31.5234 36.3924 31.3299 36.5859 31.0919 36.5859H13.9081C13.6701 36.5859 13.4766 36.3923 13.4766 36.1544V29.1113C13.4766 24.7981 16.9856 21.2891 21.2987 21.2891H23.7012C28.0144 21.2891 31.5234 24.7981 31.5234 29.1112V36.1544ZM41.9219 33.8067C41.9219 33.8511 42.4024 33.8359 34.1016 33.8359C34.1016 28.9675 34.2795 27.6469 33.4141 25.3935V24.5109C33.4141 22.7344 34.8752 21.2891 36.6711 21.2891H38.6648C40.4608 21.2891 41.9219 22.7344 41.9219 24.5109V33.8067Z" fill="#47BF6F"/>
<path d="M7.375 15.7891C9.98123 15.7891 12.1016 13.6687 12.1016 11.0625C12.1016 8.45627 9.98123 6.33594 7.375 6.33594C4.76877 6.33594 2.64844 8.45627 2.64844 11.0625C2.64844 13.6687 4.76877 15.7891 7.375 15.7891ZM7.375 8.91406C8.55965 8.91406 9.52344 9.87785 9.52344 11.0625C9.52344 12.2471 8.55965 13.2109 7.375 13.2109C6.19035 13.2109 5.22656 12.2471 5.22656 11.0625C5.22656 9.87785 6.19035 8.91406 7.375 8.91406Z" fill="#47BF6F"/>
</svg>
