<svg width="53" height="52" viewBox="0 0 53 52" fill="none" xmlns="http://www.w3.org/2000/svg">
<g clip-path="url(#clip0_419_571)" filter="url(#filter0_d_419_571)">
<path d="M47.2109 3.17566H41.5646C41.5851 2.55026 41.5965 1.92117 41.5965 1.28906C41.5965 0.577057 41.0191 0 40.3074 0H12.6926C11.9809 0 11.4035 0.577057 11.4035 1.28906C11.4035 1.92117 11.4149 2.55026 11.4354 3.17566H5.78906C5.07706 3.17566 4.5 3.75272 4.5 4.46472C4.5 10.2407 6.00961 15.69 8.75055 19.8093C11.4599 23.8816 15.069 26.2173 18.9677 26.4446C19.8516 27.4063 20.7858 28.1905 21.759 28.7887V34.518H19.5965C16.9821 34.518 14.8555 36.645 14.8555 39.259V41.4215H14.7638C14.0518 41.4215 13.4748 41.9989 13.4748 42.7106C13.4748 43.4226 14.0518 43.9997 14.7638 43.9997H38.2362C38.9482 43.9997 39.5252 43.4226 39.5252 42.7106C39.5252 41.9989 38.9482 41.4215 38.2362 41.4215H38.1445V39.259C38.1445 36.645 36.0179 34.518 33.4035 34.518H31.241V28.7887C32.2142 28.1909 33.1487 27.4063 34.0326 26.4446C37.931 26.2173 41.5401 23.8816 44.2498 19.8093C46.9907 15.69 48.5 10.2407 48.5 4.46472C48.5 3.75272 47.9229 3.17566 47.2109 3.17566ZM10.897 18.3812C8.63608 14.9837 7.30774 10.5398 7.10532 5.75378H11.5794C12.0444 11.6371 13.4254 17.0754 15.5839 21.3921C15.9277 22.0796 16.2872 22.7291 16.6602 23.3408C14.5161 22.5311 12.5318 20.8385 10.897 18.3812ZM35.5664 39.259V41.4219H17.4336V39.259C17.4336 38.0666 18.4037 37.0961 19.5965 37.0961H33.4035C34.5963 37.0961 35.5664 38.0666 35.5664 39.259ZM28.6629 34.518H24.3371V29.9089C25.0458 30.0956 25.7679 30.1926 26.5 30.1926C27.2321 30.1926 27.9542 30.0956 28.6629 29.9089V34.518ZM29.4612 26.842C29.4031 26.8659 29.3474 26.8947 29.294 26.9266C28.3829 27.3798 27.4467 27.6145 26.5 27.6145C25.5537 27.6145 24.6178 27.3798 23.707 26.9273C23.653 26.8947 23.5969 26.8659 23.5382 26.8414C22.5274 26.3069 21.5495 25.4999 20.6247 24.4395C20.576 24.37 20.5213 24.3059 20.4605 24.2475C19.5424 23.1575 18.6787 21.8167 17.8898 20.239C15.5208 15.5013 14.1525 9.27185 13.9968 2.57812H39.0032C38.8471 9.27185 37.4789 15.5016 35.1102 20.239C34.3213 21.8167 33.4576 23.1575 32.5398 24.2475C32.4787 24.3059 32.4233 24.3703 32.375 24.4398C31.4501 25.5006 30.4719 26.3073 29.4612 26.842ZM42.103 18.3812C40.4682 20.8385 38.4839 22.5311 36.3398 23.3408C36.7128 22.7291 37.0723 22.0796 37.4161 21.3921C39.5746 17.0754 40.9553 11.6371 41.4206 5.75378H45.8947C45.6923 10.5398 44.3639 14.9837 42.103 18.3812Z" fill="#47BF6F"/>
</g>
<defs>
<filter id="filter0_d_419_571" x="0.5" y="0" width="52" height="52" filterUnits="userSpaceOnUse" color-interpolation-filters="sRGB">
<feFlood flood-opacity="0" result="BackgroundImageFix"/>
<feColorMatrix in="SourceAlpha" type="matrix" values="0 0 0 0 0 0 0 0 0 0 0 0 0 0 0 0 0 0 127 0" result="hardAlpha"/>
<feOffset dy="4"/>
<feGaussianBlur stdDeviation="2"/>
<feComposite in2="hardAlpha" operator="out"/>
<feColorMatrix type="matrix" values="0 0 0 0 0 0 0 0 0 0 0 0 0 0 0 0 0 0 0.25 0"/>
<feBlend mode="normal" in2="BackgroundImageFix" result="effect1_dropShadow_419_571"/>
<feBlend mode="normal" in="SourceGraphic" in2="effect1_dropShadow_419_571" result="shape"/>
</filter>
<clipPath id="clip0_419_571">
<rect width="44" height="44" fill="white" transform="translate(4.5)"/>
</clipPath>
</defs>
</svg>
