<svg width="44" height="44" viewBox="0 0 44 44" fill="none" xmlns="http://www.w3.org/2000/svg">
<path d="M24.9302 27.339C27.8026 27.339 30.1383 25.0032 30.1383 22.1309C30.1383 19.2586 27.8026 16.9229 24.9302 16.9229C22.0579 16.9229 19.7222 19.2586 19.7222 22.1309C19.7222 25.0032 22.0578 27.339 24.9302 27.339ZM24.9302 18.9963C26.6622 18.9963 28.0648 20.405 28.0648 22.1309C28.0648 23.8629 26.6561 25.2655 24.9302 25.2655C23.1983 25.2655 21.7956 23.8568 21.7956 22.1309C21.7956 20.405 23.2043 18.9963 24.9302 18.9963Z" fill="#47BF6F"/>
<path d="M28.3271 28.9121H21.5213C17.722 28.9121 14.6301 31.9979 14.6301 35.785V42.1639C14.6301 43.1945 15.4351 43.9995 16.4657 43.9995H33.3644C34.395 43.9995 35.2 43.1945 35.2 42.1639V35.791C35.2062 31.9979 32.1203 28.9121 28.3271 28.9121ZM33.1265 41.9322H31.2177V35.8155C31.2177 35.3459 30.8334 34.9617 30.3639 34.9617C29.8944 34.9617 29.5101 35.3459 29.5101 35.8155V41.9322H20.2954V35.8155C20.2954 35.3459 19.9112 34.9617 19.4417 34.9617C18.9721 34.9617 18.5879 35.3459 18.5879 35.8155V41.9322H16.7095V35.7912C16.7095 33.1444 18.8684 30.9856 21.5212 30.9856H28.327C30.9737 30.9856 33.1264 33.1384 33.1264 35.785V41.9322H33.1265Z" fill="#47BF6F"/>
<path d="M31.4432 10.4161C34.3155 10.4161 36.6512 8.08039 36.6512 5.20806C36.6512 2.33574 34.3155 0 31.4432 0C28.5708 0 26.2351 2.33574 26.2351 5.20806C26.2351 8.08039 28.5708 10.4161 31.4432 10.4161ZM31.4432 2.07346C33.1751 2.07346 34.5778 3.48217 34.5778 5.20806C34.5778 6.93396 33.1691 8.34267 31.4432 8.34267C29.7112 8.34267 28.3086 6.93396 28.3086 5.20806C28.3086 3.48217 29.7112 2.07346 31.4432 2.07346Z" fill="#47BF6F"/>
<path d="M39.6946 14.0019C38.3955 12.7029 36.6698 11.9834 34.8342 11.9834H27.9185C25.7475 11.9834 23.6862 13.0323 22.3995 14.7887C22.058 15.2521 22.1616 15.8985 22.619 16.2401C22.802 16.3742 23.0215 16.4414 23.2288 16.4414C23.5459 16.4414 23.8631 16.295 24.0643 16.0206C24.9607 14.7949 26.4 14.0631 27.9124 14.0631H34.8401C36.1208 14.0631 37.3221 14.5631 38.2308 15.4718C39.1395 16.3804 39.6395 17.5879 39.6395 18.8624V25.0097H37.7307V18.8929C37.7307 18.4234 37.3464 18.0392 36.8769 18.0392C36.4074 18.0392 36.0231 18.4234 36.0231 18.8929V25.0097H30.6749C30.1016 25.0097 29.6381 25.4731 29.6381 26.0464C29.6381 26.6197 30.1016 27.0831 30.6749 27.0831H39.8713C40.902 27.0831 41.7069 26.2782 41.7069 25.2476V18.8626C41.713 18.8626 41.713 18.8626 41.713 18.8626C41.7131 17.0267 40.9996 15.301 39.6946 14.0019Z" fill="#47BF6F"/>
<path d="M12.5806 17.3683C15.4529 17.3683 17.7887 15.0325 17.7887 12.1602C17.7887 9.28789 15.4529 6.95215 12.5806 6.95215C9.70829 6.95215 7.37256 9.28789 7.37256 12.1602C7.37256 15.0325 9.70818 17.3683 12.5806 17.3683ZM12.5806 9.01953C14.3126 9.01953 15.7152 10.4282 15.7152 12.1541C15.7152 13.8861 14.3065 15.2887 12.5806 15.2887C10.8486 15.2887 9.44602 13.88 9.44602 12.1541C9.44602 10.4282 10.8547 9.01953 12.5806 9.01953Z" fill="#47BF6F"/>
<path d="M13.2395 31.9615H7.97041V25.8387C7.97041 25.3692 7.58617 24.9849 7.11664 24.9849C6.64711 24.9849 6.26286 25.3692 6.26286 25.8387V31.9615H4.35413V25.8143C4.35413 23.1675 6.51299 21.0149 9.17187 21.0149L16.0204 21.0209C16.6363 21.0209 17.2096 21.1308 17.7829 21.3624C17.9109 21.4113 18.039 21.4356 18.1732 21.4356C18.5818 21.4356 18.9721 21.1916 19.1368 20.7892C19.3503 20.2586 19.0942 19.6549 18.5635 19.4414C17.7403 19.1121 16.9109 18.9475 16.0266 18.9475L9.17806 18.9414C5.37871 18.9414 2.28687 22.0272 2.28687 25.8143V32.1932C2.28687 33.2238 3.09181 34.0288 4.12246 34.0288H13.2396C13.8129 34.0288 14.2763 33.5653 14.2763 32.9921C14.2762 32.425 13.8127 31.9615 13.2395 31.9615Z" fill="#47BF6F"/>
</svg>
