<svg width="24" height="25" viewBox="0 0 24 25" fill="none" xmlns="http://www.w3.org/2000/svg">
<path fill-rule="evenodd" clip-rule="evenodd" d="M12.2505 9C11.2855 9 10.5005 9.785 10.5005 10.751C10.5005 11.716 11.2855 12.5 12.2505 12.5C13.2155 12.5 14.0005 11.716 14.0005 10.751C14.0005 9.785 13.2155 9 12.2505 9ZM12.2505 14C10.4585 14 9.00049 12.543 9.00049 10.751C9.00049 8.958 10.4585 7.5 12.2505 7.5C14.0425 7.5 15.5005 8.958 15.5005 10.751C15.5005 12.543 14.0425 14 12.2505 14Z" fill="#47BF6F"/>
<mask id="mask0_305_3828" style="mask-type:alpha" maskUnits="userSpaceOnUse" x="4" y="2" width="17" height="20">
<path fill-rule="evenodd" clip-rule="evenodd" d="M4 2.5H20.4995V22H4V2.5Z" fill="white"/>
</mask>
<g mask="url(#mask0_305_3828)">
<path fill-rule="evenodd" clip-rule="evenodd" d="M12.2495 4C8.52751 4 5.49951 7.057 5.49951 10.813C5.49951 15.592 11.1235 20.248 12.2495 20.496C13.3755 20.247 18.9995 15.591 18.9995 10.813C18.9995 7.057 15.9715 4 12.2495 4ZM12.2495 22C10.4555 22 3.99951 16.448 3.99951 10.813C3.99951 6.229 7.70051 2.5 12.2495 2.5C16.7985 2.5 20.4995 6.229 20.4995 10.813C20.4995 16.448 14.0435 22 12.2495 22Z" fill="#47BF6F"/>
</g>
</svg>
