<svg width="24" height="25" viewBox="0 0 24 25" fill="none" xmlns="http://www.w3.org/2000/svg">
<mask id="mask0_305_3816" style="mask-type:alpha" maskUnits="userSpaceOnUse" x="14" y="2" width="9" height="10">
<path fill-rule="evenodd" clip-rule="evenodd" d="M14.354 2.5H22.893V11.0328H14.354V2.5Z" fill="white"/>
</mask>
<g mask="url(#mask0_305_3816)">
<path fill-rule="evenodd" clip-rule="evenodd" d="M22.1427 11.0328C21.7657 11.0328 21.4417 10.7498 21.3987 10.3668C21.0197 6.99081 18.3977 4.37081 15.0207 3.99581C14.6097 3.94981 14.3127 3.57981 14.3587 3.16781C14.4037 2.75681 14.7707 2.45381 15.1867 2.50581C19.2647 2.95881 22.4317 6.12181 22.8887 10.1988C22.9347 10.6108 22.6387 10.9818 22.2277 11.0278C22.1997 11.0308 22.1707 11.0328 22.1427 11.0328Z" fill="#47BF6F"/>
</g>
<path fill-rule="evenodd" clip-rule="evenodd" d="M18.6026 11.0442C18.2506 11.0442 17.9376 10.7962 17.8676 10.4382C17.5796 8.95815 16.4386 7.81715 14.9606 7.53015C14.5536 7.45115 14.2886 7.05815 14.3676 6.65115C14.4466 6.24415 14.8466 5.97815 15.2466 6.05815C17.3276 6.46215 18.9346 8.06815 19.3396 10.1502C19.4186 10.5582 19.1536 10.9512 18.7476 11.0302C18.6986 11.0392 18.6506 11.0442 18.6026 11.0442Z" fill="#47BF6F"/>
<mask id="mask1_305_3816" style="mask-type:alpha" maskUnits="userSpaceOnUse" x="2" y="2" width="21" height="22">
<path fill-rule="evenodd" clip-rule="evenodd" d="M2.00037 2.5H22.5006V23.0005H2.00037V2.5Z" fill="white"/>
</mask>
<g mask="url(#mask1_305_3816)">
<path fill-rule="evenodd" clip-rule="evenodd" d="M4.35945 5.56154C4.36145 5.56154 4.31145 5.61354 4.24845 5.67554C4.00645 5.91054 3.50545 6.39954 3.50045 7.42254C3.49245 8.85354 4.43345 11.5105 8.96445 16.0405C13.4734 20.5485 16.1265 21.5005 17.5615 21.5005H17.5824C18.6054 21.4945 19.0935 20.9935 19.3285 20.7525C19.3995 20.6795 19.4575 20.6245 19.4985 20.5915C20.4955 19.5885 21.0054 18.8435 21.0005 18.3645C20.9944 17.8765 20.3874 17.3005 19.5485 16.5015C19.2815 16.2485 18.9914 15.9715 18.6854 15.6655C17.8914 14.8745 17.5005 15.0095 16.6355 15.3135C15.4405 15.7325 13.8035 16.3065 11.2524 13.7535C8.70045 11.2025 9.27245 9.56554 9.68945 8.36954C9.99145 7.50554 10.1295 7.11254 9.33645 6.31854C9.02645 6.00854 8.74745 5.71454 8.49045 5.44454C7.69645 4.61054 7.12345 4.00754 6.63845 4.00054H6.63045C6.15145 4.00054 5.40745 4.51254 4.35445 5.56554C4.35745 5.56254 4.35845 5.56154 4.35945 5.56154ZM17.5615 23.0005C15.0695 23.0005 11.8204 21.0165 7.90445 17.1015C3.97245 13.1705 1.98545 9.91154 2.00045 7.41454C2.00945 5.76454 2.87445 4.91954 3.19945 4.60254C3.21645 4.58154 3.27445 4.52454 3.29445 4.50454C4.72945 3.06954 5.71545 2.47954 6.65745 2.50054C7.77445 2.51554 8.57045 3.35254 9.57745 4.41154C9.82645 4.67254 10.0955 4.95754 10.3965 5.25754C11.8554 6.71754 11.4405 7.90854 11.1055 8.86454C10.7415 9.90754 10.4265 10.8075 12.3125 12.6935C14.1985 14.5795 15.0975 14.2645 16.1395 13.8975C17.0964 13.5635 18.2845 13.1455 19.7465 14.6055C20.0435 14.9025 20.3235 15.1685 20.5835 15.4155C21.6465 16.4275 22.4865 17.2265 22.5005 18.3465C22.5114 19.3005 21.9314 20.2745 20.4995 21.7065L19.8654 21.2765L20.4025 21.7995C20.0855 22.1245 19.2425 22.9905 17.5915 23.0005H17.5615Z" fill="#47BF6F"/>
</g>
</svg>
