<svg width="25" height="25" viewBox="0 0 25 25" fill="none" xmlns="http://www.w3.org/2000/svg">
<mask id="mask0_42_1240" style="mask-type:alpha" maskUnits="userSpaceOnUse" x="0" y="0" width="25" height="25">
<path fill-rule="evenodd" clip-rule="evenodd" d="M0.333374 0.333313H24.4794V24.447H0.333374V0.333313Z" fill="white"/>
</mask>
<g mask="url(#mask0_42_1240)">
<path fill-rule="evenodd" clip-rule="evenodd" d="M6.91639 2.08331C3.52839 2.08331 2.08289 3.80531 2.08289 7.83848V16.9373C2.08289 20.652 4.13389 22.6971 7.85789 22.6971H16.9369C20.6516 22.6971 22.6967 20.652 22.6967 16.9373V16.9338L22.7294 11.1413C22.7294 7.17581 21.3691 5.62998 17.8749 5.62998H14.5732C13.4661 5.62881 12.4091 5.10031 11.7441 4.21598L10.6789 2.79965C10.3441 2.35048 9.80855 2.08448 9.24855 2.08331H6.91639ZM16.9369 24.4471H7.85789C3.21689 24.4471 0.332886 21.569 0.332886 16.9373V7.83848C0.332886 2.85798 2.54839 0.333313 6.91639 0.333313H9.24972C10.3592 0.33448 11.4162 0.864146 12.0789 1.74965L13.1417 3.16365C13.4789 3.61165 14.0144 3.87881 14.5744 3.87998H17.8749C22.3806 3.87998 24.4794 6.18881 24.4794 11.146L24.4467 16.9408C24.4456 21.5701 21.5686 24.4471 16.9369 24.4471Z" fill="#6C6C6C"/>
</g>
<path fill-rule="evenodd" clip-rule="evenodd" d="M17.5017 16.3316H7.31091C6.82791 16.3316 6.43591 15.9396 6.43591 15.4566C6.43591 14.9736 6.82791 14.5816 7.31091 14.5816H17.5017C17.9847 14.5816 18.3767 14.9736 18.3767 15.4566C18.3767 15.9396 17.9847 16.3316 17.5017 16.3316Z" fill="#6C6C6C"/>
</svg>
