<svg width="24" height="24" viewBox="0 0 24 24" fill="none" xmlns="http://www.w3.org/2000/svg">
<path fill-rule="evenodd" clip-rule="evenodd" d="M12 2.08331C6.53187 2.08331 2.08337 6.53181 2.08337 12C2.08337 17.4681 6.53187 21.9166 12 21.9166C17.4682 21.9166 21.9167 17.4681 21.9167 12C21.9167 6.53181 17.4682 2.08331 12 2.08331ZM12 23.6666C5.56704 23.6666 0.333374 18.433 0.333374 12C0.333374 5.56698 5.56704 0.333313 12 0.333313C18.433 0.333313 23.6667 5.56698 23.6667 12C23.6667 18.433 18.433 23.6666 12 23.6666Z" fill="#6C6C6C"/>
<path fill-rule="evenodd" clip-rule="evenodd" d="M16.0031 16.3078C15.8502 16.3078 15.6962 16.2682 15.5551 16.1853L11.1567 13.5615C10.8931 13.4028 10.7297 13.117 10.7297 12.809V7.15302C10.7297 6.67002 11.1217 6.27802 11.6047 6.27802C12.0889 6.27802 12.4797 6.67002 12.4797 7.15302V12.312L16.4522 14.6804C16.8664 14.9289 17.0029 15.4655 16.7556 15.8808C16.5911 16.155 16.3006 16.3078 16.0031 16.3078Z" fill="#6C6C6C"/>
</svg>
