<?xml version="1.0" encoding="utf-8"?><svg viewBox="0 0 478.17 478.17" xmlns="http://www.w3.org/2000/svg" xmlns:xlink="http://www.w3.org/1999/xlink"><style>:root>svg{display:none}:root>svg:target{display:block}</style><svg viewBox="0 0 16 16" id="facebook" xmlns="http://www.w3.org/2000/svg"><g clip-path="url(#aclip0_305_3796)"><path d="M10.665 2.657h1.46V.113A18.862 18.862 0 009.997 0C7.891 0 6.45 1.325 6.45 3.76V6H4.125v2.844h2.324V16h2.849V8.845h2.23L11.882 6H9.297V4.04c.001-.822.222-1.384 1.368-1.384z"/></g><defs><clipPath id="aclip0_305_3796"><path d="M0 2a2 2 0 012-2h12a2 2 0 012 2v12a2 2 0 01-2 2H2a2 2 0 01-2-2V2z"/></clipPath></defs></svg><svg fill="none" viewBox="0 0 24 24" id="instagram" xmlns="http://www.w3.org/2000/svg"><path d="M23.928 7.052c-.059-1.277-.261-2.15-.558-2.912a5.88 5.88 0 00-1.384-2.126A5.883 5.883 0 0019.86.63c-.763-.297-1.635-.5-2.912-.557C15.668.013 15.258 0 12 0 8.741 0 8.332.014 7.052.072 5.775.131 4.903.333 4.14.63c-.801.301-1.526.774-2.126 1.384A5.882 5.882 0 00.63 4.14c-.297.764-.5 1.636-.557 2.913C.013 8.332 0 8.741 0 12c0 3.259.014 3.668.073 4.948.058 1.277.26 2.149.557 2.912a5.88 5.88 0 001.384 2.126c.6.61 1.325 1.082 2.126 1.384.763.297 1.635.5 2.913.558C8.333 23.986 8.74 24 12 24c3.26 0 3.668-.014 4.948-.072 1.277-.059 2.15-.261 2.912-.558a6.135 6.135 0 003.51-3.51c.297-.763.5-1.635.558-2.912.058-1.28.072-1.69.072-4.948 0-3.26-.014-3.668-.072-4.948zm-2.16 9.797c-.053 1.17-.25 1.806-.413 2.228a3.974 3.974 0 01-2.278 2.278c-.423.164-1.058.36-2.228.413-1.265.058-1.645.07-4.849.07-3.205 0-3.584-.012-4.85-.07-1.169-.053-1.804-.249-2.227-.413a3.72 3.72 0 01-1.38-.898 3.718 3.718 0 01-.898-1.38c-.164-.422-.36-1.058-.413-2.228-.058-1.265-.07-1.645-.07-4.849s.012-3.584.07-4.849c.054-1.17.249-1.805.413-2.228.193-.522.5-.993.898-1.38a3.715 3.715 0 011.38-.898c.423-.164 1.058-.36 2.228-.413 1.265-.058 1.645-.07 4.849-.07s3.584.012 4.849.07c1.17.054 1.805.25 2.228.413.521.193.993.5 1.38.898.398.387.705.858.898 1.38.164.423.36 1.058.413 2.228.057 1.265.07 1.645.07 4.849s-.012 3.584-.07 4.85z" fill="#fff"/><path d="M12 5.838a6.162 6.162 0 100 12.324 6.162 6.162 0 000-12.324zM12 16a4 4 0 110-8 4 4 0 010 8zM19.846 5.594a1.44 1.44 0 11-2.88 0 1.44 1.44 0 012.88 0z" fill="#fff"/></svg><svg viewBox="0 0 478.165 478.165" id="linked" xmlns="http://www.w3.org/2000/svg"><path d="M442.78 0H35.424C15.859 0 0 15.401 0 34.288v409.688c0 18.828 15.859 34.189 35.424 34.189h407.337c19.585 0 35.404-15.361 35.404-34.189V34.288C478.165 15.401 462.345 0 442.78 0zM145.003 400.244H72.781V184.412h72.223v215.832zm-36.161-245.279h-.478c-24.247 0-39.927-16.696-39.927-37.337 0-21.219 16.158-37.337 40.863-37.337 24.725 0 39.927 16.118 40.385 37.337.02 20.641-15.64 37.337-40.843 37.337zm296.542 245.279h-72.083V284.807c0-29.009-10.599-48.952-36.739-48.952-20.063 0-31.798 13.428-36.958 26.458-1.893 4.423-2.391 10.898-2.391 17.393v120.537H184.95s.916-195.629 0-215.832h72.263v30.603c9.484-14.684 26.658-35.703 65.01-35.703 47.577 0 83.161 30.862 83.161 97.167v123.766zm-148.61-184.532c.06-.219.159-.438.418-.677v.677h-.418z"/></svg><svg viewBox="0 0 16 16" id="linkedin" xmlns="http://www.w3.org/2000/svg"><path d="M15.996 16H16v-5.868c0-2.87-.618-5.082-3.974-5.082-1.613 0-2.696.885-3.138 1.724h-.047V5.318H5.66V16h3.314v-5.29c0-1.392.264-2.739 1.988-2.739 1.7 0 1.725 1.59 1.725 2.829V16h3.31zM.264 5.318h3.317V16H.264V5.318zM1.921 0C.861 0 0 .86 0 1.921s.86 1.94 1.921 1.94 1.922-.879 1.922-1.94C3.842.861 2.98 0 1.92 0z"/></svg><svg fill="none" viewBox="0 0 19 19" id="telegram" xmlns="http://www.w3.org/2000/svg"><path d="M.027 18.133c-.156.717.395 1.021.906.792l17.274-8.858h.002a.637.637 0 00.325-.567.637.637 0 00-.325-.567h-.002L.933.075C.422-.154-.13.15.027.867L1.614 7.94 10.631 9.5l-9.017 1.561-1.587 7.072z" fill="#fff"/></svg><svg viewBox="0 0 16 16" id="twitter" xmlns="http://www.w3.org/2000/svg"><path d="M16 3.039a6.839 6.839 0 01-1.89.518 3.262 3.262 0 001.443-1.813 6.555 6.555 0 01-2.08.794 3.28 3.28 0 00-5.674 2.243c0 .26.022.51.076.748a9.284 9.284 0 01-6.761-3.431 3.285 3.285 0 001.008 4.384A3.24 3.24 0 01.64 6.078v.036a3.295 3.295 0 002.628 3.223 3.274 3.274 0 01-.86.108 2.9 2.9 0 01-.621-.056 3.311 3.311 0 003.065 2.285 6.59 6.59 0 01-4.067 1.399c-.269 0-.527-.012-.785-.045A9.234 9.234 0 005.032 14.5c6.036 0 9.336-5 9.336-9.334 0-.145-.005-.285-.012-.424A6.544 6.544 0 0016 3.039z"/></svg></svg>