<svg width="24" height="25" fill="none" xmlns="http://www.w3.org/2000/svg"><path fill-rule="evenodd" clip-rule="evenodd" d="M11.777 13.964a3.042 3.042 0 01-1.894-.662L5.398 9.684a.751.751 0 01.94-1.168l4.482 3.613a1.544 1.544 0 001.923-.005l4.436-3.605a.75.75 0 11.947 1.164l-4.444 3.612a3.059 3.059 0 01-1.905.668z" fill="#47BF6F"/><mask id="mask0_305_3822" style="mask-type:alpha" maskUnits="userSpaceOnUse" x="1" y="2" width="22" height="20"><path fill-rule="evenodd" clip-rule="evenodd" d="M1 2.5h21.5V22H1V2.5z" fill="#fff"/></mask><g mask="url(#mask0_305_3822)"><path fill-rule="evenodd" clip-rule="evenodd" d="M6.839 20.5h9.82c.002-.002.01 0 .016 0 1.14 0 2.153-.408 2.929-1.183.9-.897 1.396-2.186 1.396-3.629V8.82C21 6.027 19.174 4 16.659 4H6.84C4.326 4 2.5 6.027 2.5 8.82v6.868c0 1.443.496 2.732 1.396 3.629.776.775 1.789 1.183 2.929 1.183h.014zM6.822 22c-1.543 0-2.921-.56-3.985-1.62C1.652 19.198 1 17.532 1 15.688V8.82C1 5.217 3.51 2.5 6.84 2.5h9.819c3.33 0 5.84 2.717 5.84 6.32v6.868c0 1.844-.651 3.51-1.836 4.692C19.6 21.439 18.22 22 16.675 22H6.82z" fill="#47BF6F"/></g></svg>