<svg width="24" height="25" fill="none" xmlns="http://www.w3.org/2000/svg"><path fill-rule="evenodd" clip-rule="evenodd" d="M12.25 9A1.751 1.751 0 1014 10.751C14 9.785 13.216 9 12.25 9zm0 5A3.253 3.253 0 019 10.751 3.254 3.254 0 0112.25 7.5a3.254 3.254 0 013.25 3.251A3.253 3.253 0 0112.25 14z" fill="#47BF6F"/><mask id="mask0_305_3828" style="mask-type:alpha" maskUnits="userSpaceOnUse" x="4" y="2" width="17" height="20"><path fill-rule="evenodd" clip-rule="evenodd" d="M4 2.5h16.5V22H4V2.5z" fill="#fff"/></mask><g mask="url(#mask0_305_3828)"><path fill-rule="evenodd" clip-rule="evenodd" d="M12.25 4C8.527 4 5.5 7.057 5.5 10.813c0 4.779 5.623 9.435 6.75 9.683 1.126-.249 6.75-4.905 6.75-9.683C19 7.057 15.972 4 12.25 4zm0 18C10.455 22 4 16.448 4 10.813 4 6.229 7.7 2.5 12.25 2.5c4.549 0 8.25 3.729 8.25 8.313C20.5 16.448 14.043 22 12.25 22z" fill="#47BF6F"/></g></svg>