<svg width="24" height="25" fill="none" xmlns="http://www.w3.org/2000/svg"><mask id="mask0_305_3816" style="mask-type:alpha" maskUnits="userSpaceOnUse" x="14" y="2" width="9" height="10"><path fill-rule="evenodd" clip-rule="evenodd" d="M14.354 2.5h8.539v8.533h-8.539V2.5z" fill="#fff"/></mask><g mask="url(#mask0_305_3816)"><path fill-rule="evenodd" clip-rule="evenodd" d="M22.143 11.033a.75.75 0 01-.744-.666 7.181 7.181 0 00-6.378-6.371.75.75 0 01-.662-.828.743.743 0 01.828-.662 8.671 8.671 0 017.702 7.693.75.75 0 01-.746.834z" fill="#47BF6F"/></g><path fill-rule="evenodd" clip-rule="evenodd" d="M18.603 11.044a.75.75 0 01-.735-.606A3.66 3.66 0 0014.96 7.53a.75.75 0 11.286-1.472 5.153 5.153 0 014.093 4.092.75.75 0 01-.737.894z" fill="#47BF6F"/><mask id="mask1_305_3816" style="mask-type:alpha" maskUnits="userSpaceOnUse" x="2" y="2" width="21" height="22"><path fill-rule="evenodd" clip-rule="evenodd" d="M2 2.5h20.5V23H2V2.5z" fill="#fff"/></mask><g mask="url(#mask1_305_3816)"><path fill-rule="evenodd" clip-rule="evenodd" d="M4.36 5.562c.001 0-.049.052-.112.114-.242.235-.743.724-.748 1.747-.008 1.43.933 4.088 5.464 8.618 4.51 4.508 7.162 5.46 8.597 5.46h.021c1.023-.007 1.511-.508 1.746-.748a2.12 2.12 0 01.17-.162c.997-1.003 1.507-1.748 1.502-2.227-.006-.488-.613-1.064-1.451-1.863a43.94 43.94 0 01-.864-.836c-.794-.79-1.184-.655-2.05-.351-1.195.418-2.832.992-5.383-1.56C8.7 11.203 9.272 9.566 9.69 8.37c.302-.864.44-1.257-.353-2.051-.31-.31-.589-.604-.846-.874C7.696 4.61 7.123 4.008 6.638 4H6.63c-.479 0-1.223.512-2.276 1.565l.005-.004zM17.56 23c-2.492 0-5.74-1.983-9.657-5.898C3.972 13.17 1.985 9.912 2 7.415c.01-1.65.874-2.495 1.2-2.812.016-.021.074-.078.094-.098C4.73 3.07 5.715 2.48 6.657 2.5c1.117.015 1.913.852 2.92 1.91.25.262.518.547.82.847 1.458 1.46 1.043 2.65.708 3.607-.364 1.043-.678 1.942 1.207 3.829 1.886 1.885 2.786 1.57 3.828 1.204.956-.335 2.145-.752 3.607.707.297.297.576.563.837.81 1.063 1.012 1.902 1.812 1.916 2.931.011.954-.569 1.928-2 3.36l-.635-.43.538.523c-.317.326-1.16 1.192-2.811 1.201h-.03z" fill="#47BF6F"/></g></svg>