<svg width="16" height="16" viewBox="0 0 16 16" xmlns="http://www.w3.org/2000/svg">
<g clip-path="url(#clip0_305_3796)">
<path d="M10.6646 2.65667H12.1253V0.112667C11.8733 0.078 11.0066 0 9.9973 0C7.8913 0 6.44863 1.32467 6.44863 3.75933V6H4.12463V8.844H6.44863V16H9.29797V8.84467H11.528L11.882 6.00067H9.2973V4.04133C9.29797 3.21933 9.5193 2.65667 10.6646 2.65667V2.65667Z"/>
</g>
<defs>
<clipPath id="clip0_305_3796">
<path d="M0 2C0 0.895431 0.895431 0 2 0H14C15.1046 0 16 0.895431 16 2V14C16 15.1046 15.1046 16 14 16H2C0.895431 16 0 15.1046 0 14V2Z"/>
</clipPath>
</defs>
</svg>
