<svg width="16" height="16" viewBox="0 0 16 16" xmlns="http://www.w3.org/2000/svg">
<path d="M15.996 16.0005V15.9998H16V10.1318C16 7.26114 15.382 5.0498 12.026 5.0498C10.4126 5.0498 9.32997 5.93514 8.88797 6.77447H8.8413V5.3178H5.6593V15.9998H8.97263V10.7105C8.97263 9.31781 9.23663 7.97114 10.9613 7.97114C12.6606 7.97114 12.686 9.56047 12.686 10.7998V16.0005H15.996Z"/>
<path d="M0.264038 5.31836H3.58137V16.0004H0.264038V5.31836Z"/>
<path d="M1.92133 0C0.860667 0 0 0.860667 0 1.92133C0 2.982 0.860667 3.86067 1.92133 3.86067C2.982 3.86067 3.84267 2.982 3.84267 1.92133C3.842 0.860667 2.98133 0 1.92133 0V0Z"/>
</svg>
